<?xml version="1.0" encoding="UTF-8"?>
<!DOCTYPE svg PUBLIC "-//W3C//DTD SVG 1.1//EN" "http://www.w3.org/Graphics/SVG/1.1/DTD/svg11.dtd">
<svg xmlns="http://www.w3.org/2000/svg" version="1.1" width="437px" height="112px" style="shape-rendering:geometricPrecision; text-rendering:geometricPrecision; image-rendering:optimizeQuality; fill-rule:evenodd; clip-rule:evenodd" xmlns:xlink="http://www.w3.org/1999/xlink">
<g><path style="opacity:1" fill="#010100" d="M -0.5,-0.5 C 145.167,-0.5 290.833,-0.5 436.5,-0.5C 436.5,29.1667 436.5,58.8333 436.5,88.5C 428.422,95.2423 421.422,102.909 415.5,111.5C 289.5,111.5 163.5,111.5 37.5,111.5C 26.5,97.1667 13.8333,84.5 -0.5,73.5C -0.5,48.8333 -0.5,24.1667 -0.5,-0.5 Z"/></g>
<g><path style="opacity:1" fill="#e2c154" d="M 152.5,27.5 C 152.667,44.8365 152.5,62.1699 152,79.5C 151.667,71.8333 151.333,64.1667 151,56.5C 150.503,58.8098 150.337,61.1432 150.5,63.5C 145.939,64.4203 143.105,62.7537 142,58.5C 141.667,61.1667 141.333,63.8333 141,66.5C 140.802,64.6183 140.302,62.9516 139.5,61.5C 139.5,60.8333 139.5,60.1667 139.5,59.5C 140.446,57.8679 141.446,56.2012 142.5,54.5C 141.738,54.0894 140.738,53.9227 139.5,54C 140.576,52.2739 140.743,50.4406 140,48.5C 139.667,49.1667 139.333,49.8333 139,50.5C 138.802,48.6183 138.302,46.9516 137.5,45.5C 136.789,41.6181 134.456,39.1181 130.5,38C 126.345,36.9464 122.678,37.7798 119.5,40.5C 118.883,40.3893 118.383,40.056 118,39.5C 116.791,41.1835 115.291,42.5168 113.5,43.5C 109.673,37.8498 104.34,36.0165 97.5,38C 87.8614,46.5138 88.528,54.1805 99.5,61C 101.134,61.4935 102.801,61.6602 104.5,61.5C 105.239,61.369 105.906,61.5357 106.5,62C 103.924,62.7822 101.924,64.2822 100.5,66.5C 102.061,67.3473 103.561,67.0139 105,65.5C 105.483,66.448 105.649,67.448 105.5,68.5C 103.5,68.8333 101.5,69.1667 99.5,69.5C 99.1667,68.8333 98.8333,68.1667 98.5,67.5C 98.2965,65.6096 98.9632,64.1096 100.5,63C 98.1568,63.1239 95.8235,63.6239 93.5,64.5C 91.3122,64.6927 89.6455,63.8594 88.5,62C 91.2328,62.1125 93.8995,61.9458 96.5,61.5C 94.5101,60.1268 92.3434,59.1268 90,58.5C 89.7356,54.0445 88.9022,49.7111 87.5,45.5C 87.3241,47.6716 87.1575,50.0049 87,52.5C 86.5172,51.552 86.3505,50.552 86.5,49.5C 84.1667,49.5 81.8333,49.5 79.5,49.5C 78.9779,56.9885 78.3112,64.3218 77.5,71.5C 77.2309,56.138 77.5642,40.8047 78.5,25.5C 80.2941,23.2034 82.2941,21.0367 84.5,19C 104.5,18.3333 124.5,18.3333 144.5,19C 148.07,21.0678 150.737,23.9012 152.5,27.5 Z"/></g>
<g><path style="opacity:1" fill="#836d35" d="M 78.5,25.5 C 77.5642,40.8047 77.2309,56.138 77.5,71.5C 77.5,75.5 77.5,79.5 77.5,83.5C 76.3379,65.338 76.1712,47.0046 77,28.5C 77.2321,27.2625 77.7321,26.2625 78.5,25.5 Z"/></g>
<g><path style="opacity:1" fill="#8a7d3b" d="M 195.5,36.5 C 191.094,36.748 186.76,37.4147 182.5,38.5C 186.592,35.7731 190.926,35.1064 195.5,36.5 Z"/></g>
<g><path style="opacity:1" fill="#7c6f33" d="M 236.5,36.5 C 233.14,36.6159 229.807,36.9492 226.5,37.5C 229.708,35.4686 233.041,35.1353 236.5,36.5 Z"/></g>
<g><path style="opacity:1" fill="#8b7e3b" d="M 335.5,36.5 C 332.482,36.7038 329.482,37.0371 326.5,37.5C 327.946,36.0598 329.779,35.3932 332,35.5C 333.385,35.5143 334.551,35.8476 335.5,36.5 Z"/></g>
<g><path style="opacity:1" fill="#dec054" d="M 236.5,36.5 C 243.64,37.8943 248.64,41.8943 251.5,48.5C 251.867,52.9671 251.367,57.3004 250,61.5C 248.583,60.9221 247.75,59.9221 247.5,58.5C 246.93,44.7739 239.93,39.6072 226.5,43C 223.061,45.3879 220.728,48.5545 219.5,52.5C 218.684,56.5387 217.684,60.5387 216.5,64.5C 211.065,52.1913 214.398,43.1913 226.5,37.5C 229.807,36.9492 233.14,36.6159 236.5,36.5 Z"/></g>
<g><path style="opacity:1" fill="#17120b" d="M 137.5,45.5 C 137.949,47.9775 137.283,49.9775 135.5,51.5C 134.833,51.1667 134.167,50.8333 133.5,50.5C 133.605,44.0967 130.605,41.5967 124.5,43C 123.029,45.2428 122.029,47.7428 121.5,50.5C 118.332,51.8458 116.998,50.6791 117.5,47C 117.482,44.5897 118.149,42.423 119.5,40.5C 122.678,37.7798 126.345,36.9464 130.5,38C 134.456,39.1181 136.789,41.6181 137.5,45.5 Z"/></g>
<g><path style="opacity:1" fill="#080504" d="M 247.5,58.5 C 242.174,70.3291 234.007,72.6625 223,65.5C 220.505,61.5155 219.338,57.1821 219.5,52.5C 220.728,48.5545 223.061,45.3879 226.5,43C 239.93,39.6072 246.93,44.7739 247.5,58.5 Z"/></g>
<g><path style="opacity:1" fill="#e1c254" d="M 258.5,36.5 C 260.167,36.5 261.833,36.5 263.5,36.5C 263.5,49.1667 263.5,61.8333 263.5,74.5C 261.833,74.5 260.167,74.5 258.5,74.5C 258.5,61.8333 258.5,49.1667 258.5,36.5 Z"/></g>
<g><path style="opacity:1" fill="#16110b" d="M 113.5,43.5 C 115.798,52.2371 112.798,58.2371 104.5,61.5C 102.801,61.6602 101.134,61.4935 99.5,61C 88.528,54.1805 87.8614,46.5138 97.5,38C 104.34,36.0165 109.673,37.8498 113.5,43.5 Z"/></g>
<g><path style="opacity:1" fill="#d6b551" d="M 98.5,42.5 C 110.194,42.1806 112.527,46.6806 105.5,56C 99.7416,57.2527 96.4083,54.9194 95.5,49C 95.8402,46.4887 96.8402,44.322 98.5,42.5 Z"/></g>
<g><path style="opacity:1" fill="#968041" d="M 174.5,47.5 C 173.8,51.7978 173.467,56.1311 173.5,60.5C 172.84,59.036 172.507,57.3693 172.5,55.5C 172.382,52.5143 173.048,49.8476 174.5,47.5 Z"/></g>
<g><path style="opacity:1" fill="#dbbe56" d="M 358.5,36.5 C 371.592,35.5526 375.592,40.886 370.5,52.5C 375.288,56.7735 376.788,62.1068 375,68.5C 370.513,75.5495 364.346,77.3828 356.5,74C 348.554,66.7934 348.554,59.6267 356.5,52.5C 352.155,46.5647 352.822,41.2314 358.5,36.5 Z"/></g>
<g><path style="opacity:1" fill="#100c08" d="M 360.5,40.5 C 368.486,39.998 370.486,43.1647 366.5,50C 358.424,50.8047 356.424,47.638 360.5,40.5 Z"/></g>
<g><path style="opacity:1" fill="#a08f3b" d="M 310.5,70.5 C 310.5,59.1667 310.5,47.8333 310.5,36.5C 309.167,36.5 307.833,36.5 306.5,36.5C 306.828,47.0135 306.494,57.3468 305.5,67.5C 305.5,56.8333 305.5,46.1667 305.5,35.5C 307.5,35.5 309.5,35.5 311.5,35.5C 311.828,47.3453 311.495,59.012 310.5,70.5 Z"/></g>
<g><path style="opacity:1" fill="#100c08" d="M 360.5,55.5 C 367.983,55.4808 371.483,59.1475 371,66.5C 365.951,73.1541 360.951,73.1541 356,66.5C 354.393,61.4383 355.893,57.7716 360.5,55.5 Z"/></g>
<g><path style="opacity:1" fill="#dbbe54" d="M 335.5,36.5 C 345.347,39.8643 348.514,46.531 345,56.5C 341.681,62.4682 338.348,68.4682 335,74.5C 333.186,75.7596 331.353,75.7596 329.5,74.5C 331.475,70.8892 333.142,67.2226 334.5,63.5C 321.878,63.3699 316.711,57.0366 319,44.5C 320.736,41.2608 323.236,38.9274 326.5,37.5C 329.482,37.0371 332.482,36.7038 335.5,36.5 Z"/></g>
<g><path style="opacity:1" fill="#0b0705" d="M 328.5,40.5 C 337.595,39.7641 341.761,43.7641 341,52.5C 338.549,58.0891 334.383,59.9224 328.5,58C 323.845,55.1034 322.345,50.9367 324,45.5C 325.707,43.9625 327.207,42.2959 328.5,40.5 Z"/></g>
<g><path style="opacity:1" fill="#9d8940" d="M 282.5,42.5 C 281.167,42.5 279.833,42.5 278.5,42.5C 278.5,53.5 278.5,64.5 278.5,75.5C 276.5,75.5 274.5,75.5 272.5,75.5C 272.172,63.6547 272.505,51.988 273.5,40.5C 273.5,51.8333 273.5,63.1667 273.5,74.5C 274.833,74.5 276.167,74.5 277.5,74.5C 277.333,62.8286 277.5,51.1619 278,39.5C 279.31,40.8969 280.81,41.8969 282.5,42.5 Z"/></g>
<g><path style="opacity:1" fill="#d3b452" d="M 251.5,48.5 C 254.3,67.5367 245.966,76.0367 226.5,74C 222.007,72.0062 218.674,68.8396 216.5,64.5C 217.684,60.5387 218.684,56.5387 219.5,52.5C 219.338,57.1821 220.505,61.5155 223,65.5C 234.007,72.6625 242.174,70.3291 247.5,58.5C 247.75,59.9221 248.583,60.9221 250,61.5C 251.367,57.3004 251.867,52.9671 251.5,48.5 Z"/></g>
<g><path style="opacity:1" fill="#e0c054" d="M 305.5,67.5 C 306.494,57.3468 306.828,47.0135 306.5,36.5C 307.833,36.5 309.167,36.5 310.5,36.5C 310.5,47.8333 310.5,59.1667 310.5,70.5C 305.711,75.7754 300.878,75.7754 296,70.5C 291.709,60.9225 287.209,51.5892 282.5,42.5C 280.81,41.8969 279.31,40.8969 278,39.5C 277.5,51.1619 277.333,62.8286 277.5,74.5C 276.167,74.5 274.833,74.5 273.5,74.5C 273.5,63.1667 273.5,51.8333 273.5,40.5C 276.977,36.1805 281.31,35.3471 286.5,38C 292.085,47.3977 296.919,57.2311 301,67.5C 302.616,68.8009 304.116,68.8009 305.5,67.5 Z"/></g>
<g><path style="opacity:1" fill="#d7b651" d="M 195.5,36.5 C 202.26,38.2565 207.26,42.2565 210.5,48.5C 208.5,49.8333 206.5,49.8333 204.5,48.5C 198.198,40.7957 190.864,39.6291 182.5,45C 178.695,49.0911 177.528,53.9245 179,59.5C 182.623,68.7252 189.123,71.5586 198.5,68C 201.167,66.6667 203.167,64.6667 204.5,62C 206.579,61.1923 208.579,61.359 210.5,62.5C 205.224,72.8028 196.89,76.6361 185.5,74C 179.523,71.1935 175.523,66.6935 173.5,60.5C 173.467,56.1311 173.8,51.7978 174.5,47.5C 176.459,43.8739 179.126,40.8739 182.5,38.5C 186.76,37.4147 191.094,36.748 195.5,36.5 Z"/></g>
<g><path style="opacity:1" fill="#131313" d="M -0.5,73.5 C 13.8333,84.5 26.5,97.1667 37.5,111.5C 24.8333,111.5 12.1667,111.5 -0.5,111.5C -0.5,98.8333 -0.5,86.1667 -0.5,73.5 Z"/></g>
<g><path style="opacity:1" fill="#d5b14c" d="M 152.5,27.5 C 153.662,45.9955 153.829,64.6621 153,83.5C 151.5,89 148,92.5 142.5,94C 123.833,94.6667 105.167,94.6667 86.5,94C 81.4734,92.1466 78.4734,88.6466 77.5,83.5C 77.5,79.5 77.5,75.5 77.5,71.5C 78.3112,64.3218 78.9779,56.9885 79.5,49.5C 81.8333,49.5 84.1667,49.5 86.5,49.5C 86.3505,50.552 86.5172,51.552 87,52.5C 87.1575,50.0049 87.3241,47.6716 87.5,45.5C 88.9022,49.7111 89.7356,54.0445 90,58.5C 92.3434,59.1268 94.5101,60.1268 96.5,61.5C 93.8995,61.9458 91.2328,62.1125 88.5,62C 89.6455,63.8594 91.3122,64.6927 93.5,64.5C 95.8235,63.6239 98.1568,63.1239 100.5,63C 98.9632,64.1096 98.2965,65.6096 98.5,67.5C 96.8063,65.5624 94.8063,65.2291 92.5,66.5C 95.6424,75.9389 101.309,77.9389 109.5,72.5C 111.327,70.5128 112.327,68.1795 112.5,65.5C 110.833,65.5 109.167,65.5 107.5,65.5C 107.349,68.8496 105.515,70.5163 102,70.5C 100.93,70.472 100.097,70.1386 99.5,69.5C 101.5,69.1667 103.5,68.8333 105.5,68.5C 105.649,67.448 105.483,66.448 105,65.5C 103.561,67.0139 102.061,67.3473 100.5,66.5C 101.924,64.2822 103.924,62.7822 106.5,62C 105.906,61.5357 105.239,61.369 104.5,61.5C 112.798,58.2371 115.798,52.2371 113.5,43.5C 115.291,42.5168 116.791,41.1835 118,39.5C 118.383,40.056 118.883,40.3893 119.5,40.5C 118.149,42.423 117.482,44.5897 117.5,47C 116.998,50.6791 118.332,51.8458 121.5,50.5C 122.029,47.7428 123.029,45.2428 124.5,43C 130.605,41.5967 133.605,44.0967 133.5,50.5C 134.167,50.8333 134.833,51.1667 135.5,51.5C 137.283,49.9775 137.949,47.9775 137.5,45.5C 138.302,46.9516 138.802,48.6183 139,50.5C 139.333,49.8333 139.667,49.1667 140,48.5C 140.743,50.4406 140.576,52.2739 139.5,54C 140.738,53.9227 141.738,54.0894 142.5,54.5C 141.446,56.2012 140.446,57.8679 139.5,59.5C 134.402,51.2729 127.735,49.6062 119.5,54.5C 114.361,60.4052 114.361,66.4052 119.5,72.5C 125.927,76.9674 131.761,76.3007 137,70.5C 138.908,67.7935 139.741,64.7935 139.5,61.5C 140.302,62.9516 140.802,64.6183 141,66.5C 141.333,63.8333 141.667,61.1667 142,58.5C 143.105,62.7537 145.939,64.4203 150.5,63.5C 150.337,61.1432 150.503,58.8098 151,56.5C 151.333,64.1667 151.667,71.8333 152,79.5C 152.5,62.1699 152.667,44.8365 152.5,27.5 Z"/></g>
<g><path style="opacity:1" fill="#110c09" d="M 98.5,67.5 C 98.8333,68.1667 99.1667,68.8333 99.5,69.5C 100.097,70.1386 100.93,70.472 102,70.5C 105.515,70.5163 107.349,68.8496 107.5,65.5C 109.167,65.5 110.833,65.5 112.5,65.5C 112.327,68.1795 111.327,70.5128 109.5,72.5C 101.309,77.9389 95.6424,75.9389 92.5,66.5C 94.8063,65.2291 96.8063,65.5624 98.5,67.5 Z"/></g>
<g><path style="opacity:1" fill="#140f0a" d="M 139.5,59.5 C 139.5,60.1667 139.5,60.8333 139.5,61.5C 139.741,64.7935 138.908,67.7935 137,70.5C 131.761,76.3007 125.927,76.9674 119.5,72.5C 114.361,66.4052 114.361,60.4052 119.5,54.5C 127.735,49.6062 134.402,51.2729 139.5,59.5 Z"/></g>
<g><path style="opacity:1" fill="#d6b34f" d="M 123.5,56.5 C 127.516,55.8999 131.016,56.8999 134,59.5C 135.378,67.1216 132.211,70.6216 124.5,70C 119.597,65.8429 119.263,61.3429 123.5,56.5 Z"/></g>
<g><path style="opacity:1" fill="#131313" d="M 436.5,88.5 C 436.5,96.1667 436.5,103.833 436.5,111.5C 429.5,111.5 422.5,111.5 415.5,111.5C 421.422,102.909 428.422,95.2423 436.5,88.5 Z"/></g>
</svg>
