<?xml version="1.0" standalone="no"?>
<!DOCTYPE svg PUBLIC "-//W3C//DTD SVG 20010904//EN"
 "http://www.w3.org/TR/2001/REC-SVG-20010904/DTD/svg10.dtd">
<svg version="1.0" xmlns="http://www.w3.org/2000/svg"
 width="96.000000pt" height="96.000000pt" viewBox="0 0 96.000000 96.000000"
 preserveAspectRatio="xMidYMid meet">

<g transform="translate(0.000000,96.000000) scale(0.100000,-0.100000)"
fill="#000000" stroke="none">
<path d="M250 703 c-101 -52 -107 -196 -11 -260 62 -41 159 -23 204 39 45 60
27 166 -35 211 -38 28 -114 33 -158 10z m109 -58 c16 -8 34 -28 41 -45 19 -45
-6 -94 -54 -110 -97 -32 -157 106 -67 155 33 18 46 18 80 0z"/>
<path d="M567 702 c-52 -36 -76 -96 -58 -145 9 -23 12 -25 35 -14 20 9 26 19
26 45 0 37 30 72 60 72 32 0 73 -46 67 -76 -3 -19 2 -28 23 -39 15 -8 30 -11
34 -8 3 4 6 28 6 55 0 41 -5 54 -33 84 -28 31 -41 37 -83 41 -37 3 -56 -1 -77
-15z"/>
<path d="M557 518 c-40 -24 -77 -86 -77 -130 0 -41 42 -109 80 -129 98 -53
221 15 222 123 2 121 -121 196 -225 136z m141 -74 c43 -49 14 -127 -54 -140
-46 -9 -94 35 -94 85 0 81 93 116 148 55z"/>
<path d="M190 351 c0 -26 41 -83 70 -98 60 -30 144 -3 175 56 23 46 20 61 -14
61 -22 0 -33 -7 -43 -27 -18 -36 -61 -50 -93 -29 -14 9 -25 25 -25 36 0 16 -7
20 -35 20 -27 0 -35 -4 -35 -19z"/>
</g>
</svg>
