<?xml version="1.0" encoding="UTF-8"?>
<!DOCTYPE svg PUBLIC "-//W3C//DTD SVG 1.1//EN" "http://www.w3.org/Graphics/SVG/1.1/DTD/svg11.dtd">
<svg xmlns="http://www.w3.org/2000/svg" version="1.1" width="64px" height="64px" style="shape-rendering:geometricPrecision; text-rendering:geometricPrecision; image-rendering:optimizeQuality; fill-rule:evenodd; clip-rule:evenodd" xmlns:xlink="http://www.w3.org/1999/xlink">
<g><path style="opacity:0.989" fill="#e2c256" d="M 6.5,-0.5 C 11.5,-0.5 16.5,-0.5 21.5,-0.5C 27.1969,5.19817 33.1969,10.5315 39.5,15.5C 34.9331,17.7408 32.9331,21.4074 33.5,26.5C 33.5386,27.7562 33.0386,28.7562 32,29.5C 31.8138,26.9644 31.3138,24.631 30.5,22.5C 28.1116,17.632 24.1116,15.2986 18.5,15.5C 18.0618,15.5654 17.7284,15.3988 17.5,15C 18.1667,14.6667 18.8333,14.3333 19.5,14C 14.9633,9.63118 10.6299,5.13118 6.5,0.5C 6.5,0.166667 6.5,-0.166667 6.5,-0.5 Z"/></g>
<g><path style="opacity:0.988" fill="#e7cb5a" d="M 21.5,-0.5 C 26.5,-0.5 31.5,-0.5 36.5,-0.5C 45.1667,8.83333 54.1667,17.8333 63.5,26.5C 63.5,31.5 63.5,36.5 63.5,41.5C 58.7997,36.801 54.4664,31.801 50.5,26.5C 50.5,19.1667 46.8333,15.5 39.5,15.5C 33.1969,10.5315 27.1969,5.19817 21.5,-0.5 Z"/></g>
<g><path style="opacity:0.984" fill="#edd35e" d="M 36.5,-0.5 C 43.1667,-0.5 49.8333,-0.5 56.5,-0.5C 59.1667,1.5 61.5,3.83333 63.5,6.5C 63.5,13.1667 63.5,19.8333 63.5,26.5C 54.1667,17.8333 45.1667,8.83333 36.5,-0.5 Z"/></g>
<g><path style="opacity:0.988" fill="#dcb951" d="M 6.5,0.5 C 10.6299,5.13118 14.9633,9.63118 19.5,14C 18.8333,14.3333 18.1667,14.6667 17.5,15C 17.7284,15.3988 18.0618,15.5654 18.5,15.5C 14.7987,16.8737 12.4654,19.5404 11.5,23.5C 10.6981,24.9516 10.1981,26.6183 10,28.5C 8.31813,22.6275 4.81813,17.9609 -0.5,14.5C -0.5,11.8333 -0.5,9.16667 -0.5,6.5C 1.21351,3.78718 3.54685,1.78718 6.5,0.5 Z"/></g>
<g><path style="opacity:0.992" fill="#d5af4d" d="M -0.5,14.5 C 4.81813,17.9609 8.31813,22.6275 10,28.5C 10.1981,26.6183 10.6981,24.9516 11.5,23.5C 12.0628,34.4486 17.3962,37.7819 27.5,33.5C 27.5106,35.0174 28.1772,36.1841 29.5,37C 28.1667,37.3333 26.8333,37.6667 25.5,38C 27.0581,38.21 28.3915,38.71 29.5,39.5C 26.5034,40.1412 23.8367,41.4745 21.5,43.5C 18.9542,43.1481 17.2875,41.8147 16.5,39.5C 15.4324,38.5655 14.099,38.2322 12.5,38.5C 12.5032,43.5917 11.6699,43.5917 10,38.5C 6.63087,34.9626 3.13087,31.6293 -0.5,28.5C -0.5,23.8333 -0.5,19.1667 -0.5,14.5 Z"/></g>
<g><path style="opacity:1" fill="#282725" d="M 18.5,15.5 C 24.1116,15.2986 28.1116,17.632 30.5,22.5C 31.1925,26.7527 30.1925,30.4193 27.5,33.5C 17.3962,37.7819 12.0628,34.4486 11.5,23.5C 12.4654,19.5404 14.7987,16.8737 18.5,15.5 Z"/></g>
<g><path style="opacity:1" fill="#292826" d="M 39.5,15.5 C 46.8333,15.5 50.5,19.1667 50.5,26.5C 49.5768,27.3029 48.5768,27.4696 47.5,27C 47.0269,24.1399 45.6936,21.8065 43.5,20C 41.5048,19.3872 39.8381,19.8872 38.5,21.5C 37.6981,22.9516 37.1981,24.6183 37,26.5C 35.8545,27.6843 34.6879,27.6843 33.5,26.5C 32.9331,21.4074 34.9331,17.7408 39.5,15.5 Z"/></g>
<g><path style="opacity:1" fill="#d3b14f" d="M 18.5,19.5 C 24.1696,19.3392 27.0029,22.0058 27,27.5C 23.6927,32.2977 20.026,32.6311 16,28.5C 14.9271,24.9003 15.7605,21.9003 18.5,19.5 Z"/></g>
<g><path style="opacity:1" fill="#2a2926" d="M 39.5,27.5 C 49.0242,27.5224 52.8576,32.189 51,41.5C 48.2605,46.2568 44.0939,48.2568 38.5,47.5C 32.3659,43.6544 30.8659,38.3211 34,31.5C 35.4998,29.5313 37.3331,28.198 39.5,27.5 Z"/></g>
<g><path style="opacity:0.993" fill="#d1a84a" d="M -0.5,28.5 C 3.13087,31.6293 6.63087,34.9626 10,38.5C 11.6699,43.5917 12.5032,43.5917 12.5,38.5C 14.099,38.2322 15.4324,38.5655 16.5,39.5C 15.5,39.5 14.5,39.5 13.5,39.5C 14.5152,46.8371 18.5152,49.1705 25.5,46.5C 24.0512,48.1644 22.0512,48.9977 19.5,49C 25.0031,53.3368 30.0031,58.1701 34.5,63.5C 25.1667,63.5 15.8333,63.5 6.5,63.5C 3.83333,61.5 1.5,59.1667 -0.5,56.5C -0.5,47.1667 -0.5,37.8333 -0.5,28.5 Z"/></g>
<g><path style="opacity:1" fill="#dbba53" d="M 39.5,31.5 C 47.9568,32.437 49.6235,36.2703 44.5,43C 38.1714,43.6675 35.6714,40.8342 37,34.5C 38.045,33.6266 38.8783,32.6266 39.5,31.5 Z"/></g>
<g><path style="opacity:0.986" fill="#dfbf55" d="M 50.5,26.5 C 54.4664,31.801 58.7997,36.801 63.5,41.5C 63.5,46.8333 63.5,52.1667 63.5,57.5C 61.8333,59.8333 59.8333,61.8333 57.5,63.5C 56.8333,63.5 56.1667,63.5 55.5,63.5C 50.0627,57.0347 44.396,51.7014 38.5,47.5C 44.0939,48.2568 48.2605,46.2568 51,41.5C 52.8576,32.189 49.0242,27.5224 39.5,27.5C 38.5386,25.7354 38.2053,23.7354 38.5,21.5C 39.8381,19.8872 41.5048,19.3872 43.5,20C 45.6936,21.8065 47.0269,24.1399 47.5,27C 48.5768,27.4696 49.5768,27.3029 50.5,26.5 Z"/></g>
<g><path style="opacity:1" fill="#292826" d="M 16.5,39.5 C 17.2875,41.8147 18.9542,43.1481 21.5,43.5C 23.8367,41.4745 26.5034,40.1412 29.5,39.5C 29.2753,42.5458 27.942,44.8791 25.5,46.5C 18.5152,49.1705 14.5152,46.8371 13.5,39.5C 14.5,39.5 15.5,39.5 16.5,39.5 Z"/></g>
<g><path style="opacity:0.994" fill="#d7b24e" d="M 38.5,21.5 C 38.2053,23.7354 38.5386,25.7354 39.5,27.5C 37.3331,28.198 35.4998,29.5313 34,31.5C 30.8659,38.3211 32.3659,43.6544 38.5,47.5C 44.396,51.7014 50.0627,57.0347 55.5,63.5C 48.5,63.5 41.5,63.5 34.5,63.5C 30.0031,58.1701 25.0031,53.3368 19.5,49C 22.0512,48.9977 24.0512,48.1644 25.5,46.5C 27.942,44.8791 29.2753,42.5458 29.5,39.5C 28.3915,38.71 27.0581,38.21 25.5,38C 26.8333,37.6667 28.1667,37.3333 29.5,37C 28.1772,36.1841 27.5106,35.0174 27.5,33.5C 30.1925,30.4193 31.1925,26.7527 30.5,22.5C 31.3138,24.631 31.8138,26.9644 32,29.5C 33.0386,28.7562 33.5386,27.7562 33.5,26.5C 34.6879,27.6843 35.8545,27.6843 37,26.5C 37.1981,24.6183 37.6981,22.9516 38.5,21.5 Z"/></g>
</svg>
