<?xml version="1.0" standalone="no"?>
<!DOCTYPE svg PUBLIC "-//W3C//DTD SVG 20010904//EN"
 "http://www.w3.org/TR/2001/REC-SVG-20010904/DTD/svg10.dtd">
<svg version="1.0" xmlns="http://www.w3.org/2000/svg"
 width="278.000000pt" height="278.000000pt" viewBox="0 0 278.000000 278.000000"
 preserveAspectRatio="xMidYMid meet">

<g transform="translate(0.000000,278.000000) scale(0.100000,-0.100000)"
fill="#000000" stroke="none">
<path d="M1230 1931 c-188 -60 -329 -203 -384 -390 -10 -34 -16 -92 -16 -151
0 -158 54 -290 162 -398 108 -108 240 -162 398 -162 110 0 174 16 272 67 124
65 229 197 272 342 21 72 21 230 0 302 -56 189 -204 337 -393 393 -75 22 -238
21 -311 -3z m194 -313 c11 -16 16 -46 16 -100 l0 -78 78 0 c84 0 122 -16 122
-50 0 -34 -38 -50 -122 -50 l-78 0 0 -78 c0 -84 -16 -122 -50 -122 -34 0 -50
38 -50 122 l0 78 -78 0 c-84 0 -122 16 -122 50 0 34 38 50 122 50 l78 0 0 78
c0 84 16 122 50 122 10 0 26 -10 34 -22z"/>
</g>
</svg>
