<?xml version="1.0" encoding="UTF-8"?>
<svg version="1.1" xmlns="http://www.w3.org/2000/svg" width="96" height="96">
<path d="M0 0 C1.31653564 0.01135986 1.31653564 0.01135986 2.65966797 0.02294922 C9.45144448 0.1952272 15.06562583 1.23369297 21.125 4.4375 C21.98222656 4.87320312 22.83945313 5.30890625 23.72265625 5.7578125 C36.08766834 12.58374678 43.23004062 22.68856753 47.52075195 36.01293945 C48.54203578 40.11086661 48.61362209 44.10669413 48.5625 48.3125 C48.55492676 49.19019043 48.54735352 50.06788086 48.53955078 50.97216797 C48.3672728 57.76394448 47.32880703 63.37812583 44.125 69.4375 C43.47144531 70.72333984 43.47144531 70.72333984 42.8046875 72.03515625 C35.97875322 84.40016834 25.87393247 91.54254062 12.54956055 95.83325195 C8.45163339 96.85453578 4.45580587 96.92612209 0.25 96.875 C-0.62769043 96.86742676 -1.50538086 96.85985352 -2.40966797 96.85205078 C-9.20144448 96.6797728 -14.81562583 95.64130703 -20.875 92.4375 C-22.16083984 91.78394531 -22.16083984 91.78394531 -23.47265625 91.1171875 C-35.83766834 84.29125322 -42.98004062 74.18643247 -47.27075195 60.86206055 C-48.29203578 56.76413339 -48.36362209 52.76830587 -48.3125 48.5625 C-48.30492676 47.68480957 -48.29735352 46.80711914 -48.28955078 45.90283203 C-48.1172728 39.11105552 -47.07880703 33.49687417 -43.875 27.4375 C-43.43929687 26.58027344 -43.00359375 25.72304688 -42.5546875 24.83984375 C-35.72875322 12.47483166 -25.62393247 5.33245938 -12.29956055 1.04174805 C-8.20163339 0.02046422 -4.20580587 -0.05112209 0 0 Z " fill="#FEFCF9" transform="translate(47.875,-0.4375)"/>
<path d="M0 0 C0.99 0 1.98 0 3 0 C4.50219727 1.60473633 4.50219727 1.60473633 6.06640625 3.83203125 C6.9181543 5.02989258 6.9181543 5.02989258 7.78710938 6.25195312 C8.37298828 7.09693359 8.95886719 7.94191406 9.5625 8.8125 C10.15224609 9.64587891 10.74199219 10.47925781 11.34960938 11.33789062 C18.18057209 21.01314498 18.18057209 21.01314498 19 25.24609375 C19.1640332 26.07850586 19.32806641 26.91091797 19.49707031 27.76855469 C19.66303711 28.64930664 19.82900391 29.53005859 20 30.4375 C20.17370117 31.33243164 20.34740234 32.22736328 20.52636719 33.14941406 C21.79565319 39.74827244 22.97409218 46.35859673 24 53 C20.68747405 55.36403696 17.35077257 57.69050337 14 60 C13.01902344 60.67933594 12.03804687 61.35867187 11.02734375 62.05859375 C10.06957031 62.69925781 9.11179687 63.33992188 8.125 64 C7.24070312 64.598125 6.35640625 65.19625 5.4453125 65.8125 C2.55837621 67.21446267 1.94499637 66.99338372 -1 66 C-2.75170898 65.10791016 -2.75170898 65.10791016 -4.49609375 64.0390625 C-5.13740234 63.64976563 -5.77871094 63.26046875 -6.43945312 62.859375 C-7.09880859 62.45203125 -7.75816406 62.0446875 -8.4375 61.625 C-9.09298828 61.22539063 -9.74847656 60.82578125 -10.42382812 60.4140625 C-11.69897563 59.63643995 -12.97294966 58.85688909 -14.24560547 58.07519531 C-16.4877125 56.70110133 -18.74240695 55.34846598 -21 54 C-20.28554314 47.40501363 -19.07123074 40.98544923 -17.6875 34.5 C-17.48705078 33.50613281 -17.28660156 32.51226562 -17.08007812 31.48828125 C-15.10493804 22.2301943 -11.72539356 15.45316764 -5.8125 8.125 C-2.61578159 4.25497139 -2.61578159 4.25497139 0 0 Z " fill="#1C1A1E" transform="translate(47,15)"/>
<path d="M0 0 C9.03063246 11.08481066 9.03063246 11.08481066 8.9765625 16.23046875 C8.47235713 18.56551819 7.78677433 20.74458025 7 23 C6.45494867 24.85317453 5.91325746 26.70734079 5.375 28.5625 C4.91991034 30.04266785 4.46277164 31.52221589 4 33 C1.69 33 -0.62 33 -3 33 C-3.87137151 30.63011071 -4.72206808 28.25585224 -5.5625 25.875 C-5.80935547 25.20984375 -6.05621094 24.5446875 -6.31054688 23.859375 C-7.83805967 19.47046501 -8.34345389 16.46218615 -7 12 C-5.37109375 8.7890625 -5.37109375 8.7890625 -3.4375 5.625 C-2.79683594 4.56539062 -2.15617187 3.50578125 -1.49609375 2.4140625 C-1.00238281 1.61742187 -0.50867187 0.82078125 0 0 Z " fill="#F8F6F3" transform="translate(48,33)"/>
<path d="M0 0 C1.52299523 2.93720508 2.80100302 5.9168649 4 9 C4.99 8.67 5.98 8.34 7 8 C6.67 11.63 6.34 15.26 6 19 C3.69 19.33 1.38 19.66 -1 20 C-0.67 16.7 -0.34 13.4 0 10 C-0.66 11.32 -1.32 12.64 -2 14 C-2.66 14 -3.32 14 -4 14 C-4.31549088 8.7418187 -3.70016294 5.53627373 -1 1 C-0.67 0.67 -0.34 0.34 0 0 Z " fill="#17151A" transform="translate(35,34)"/>
<path d="M0 0 C0.33 0 0.66 0 1 0 C2.2926866 9.37197784 -2.14428657 15.38043183 -7 23 C-9.24160434 19.6375935 -9.91350872 18.02664957 -10 14 C-8.71537747 11.27517782 -6.97047499 8.99492633 -5.125 6.625 C-4.65191406 5.98433594 -4.17882813 5.34367187 -3.69140625 4.68359375 C-2.50034912 3.09212425 -1.25461181 1.54186299 0 0 Z " fill="#F3F1EE" transform="translate(46,21)"/>
<path d="M0 0 C1.33985898 1.66142513 2.67082708 3.33001351 4 5 C4.62519531 5.66644531 5.25039063 6.33289063 5.89453125 7.01953125 C10.99813522 12.76737714 10.99813522 12.76737714 11.00390625 16.58203125 C10.49256141 18.82136902 9.87735691 20.879303 9 23 C4.33529829 18.7695498 0.50277507 12.53973966 -0.38671875 6.27734375 C-0.375 3.8125 -0.375 3.8125 0 0 Z " fill="#F3F1EF" transform="translate(50,21)"/>
<path d="M0 0 C2.18614424 2.18614424 2.68256535 3.53879949 3.625 6.4375 C3.88539062 7.21996094 4.14578125 8.00242187 4.4140625 8.80859375 C5 11 5 11 5 14 C1.04 14 -2.92 14 -7 14 C-5.58843021 10.47107553 -4.22615467 7.45137797 -2.375 4.1875 C-1.92898437 3.39730469 -1.48296875 2.60710938 -1.0234375 1.79296875 C-0.68570313 1.20128906 -0.34796875 0.60960937 0 0 Z " fill="#EEECEA" transform="translate(37,52)"/>
<path d="M0 0 C3.44328322 4.32177483 5.58724054 9.04406166 8 14 C4.04 14 0.08 14 -4 14 C-2 4.42857143 -2 4.42857143 0 0 Z " fill="#F0EEEB" transform="translate(59,52)"/>
<path d="M0 0 C3.3 0 6.6 0 10 0 C6.97704729 3.25548753 3.79537691 5.68977058 0 8 C-0.66 8 -1.32 8 -2 8 C-1.34 5.36 -0.68 2.72 0 0 Z " fill="#EAE8E6" transform="translate(53,69)"/>
<path d="M0 0 C3.3 0 6.6 0 10 0 C10.33 2.31 10.66 4.62 11 7 C6.89188572 5.55007731 3.53144334 3.54592427 0 1 C0 0.67 0 0.34 0 0 Z " fill="#EFEDEB" transform="translate(34,69)"/>
<path d="M0 0 C0.33 0 0.66 0 1 0 C1.53093324 1.93475671 2.04942317 3.87293155 2.5625 5.8125 C2.85253906 6.89144531 3.14257812 7.97039063 3.44140625 9.08203125 C4 12 4 12 3 15 C-2.07802691 8.43946188 -2.07802691 8.43946188 -1.88671875 4.91015625 C-1.3125 3 -1.3125 3 0 0 Z " fill="#D1CFCD" transform="translate(62,42)"/>
<path d="M0 0 C0.66 0.33 1.32 0.66 2 1 C2.5497272 6.63470383 0.95047835 9.38987758 -2 14 C-3.49341969 11.01316063 -2.40648676 9.04839022 -1.5625 5.875 C-1.27503906 4.77929688 -0.98757812 3.68359375 -0.69140625 2.5546875 C-0.46324219 1.71164063 -0.23507813 0.86859375 0 0 Z " fill="#DEDCDA" transform="translate(34,43)"/>
<path d="M0 0 C0.33 0.66 0.66 1.32 1 2 C1.66 2 2.32 2 3 2 C2.67 4.31 2.34 6.62 2 9 C1.01 8.67 0.02 8.34 -1 8 C-0.67 5.36 -0.34 2.72 0 0 Z " fill="#333134" transform="translate(30,46)"/>
<path d="M0 0 C0.99 0 1.98 0 3 0 C2.67 1.65 2.34 3.3 2 5 C0.68 5.33 -0.64 5.66 -2 6 C-1.34 4.02 -0.68 2.04 0 0 Z " fill="#262428" transform="translate(42,37)"/>
</svg>
